<svg width="30" height="30" viewBox="0 0 30 30" fill="none" xmlns="http://www.w3.org/2000/svg">
<path d="M27.5012 15.0006C27.5012 16.6422 27.1779 18.2678 26.5497 19.7844C25.9215 21.3011 25.0007 22.6791 23.8399 23.8399C22.6791 25.0007 21.3011 25.9215 19.7844 26.5497C18.2678 27.1779 16.6422 27.5012 15.0006 27.5012C13.359 27.5012 11.7335 27.1779 10.2168 26.5497C8.7002 25.9215 7.32214 25.0007 6.16135 23.8399C5.00056 22.6791 4.07977 21.3011 3.45155 19.7844C2.82334 18.2678 2.5 16.6422 2.5 15.0006C2.5 11.6853 3.81703 8.50567 6.16135 6.16135C8.50567 3.81703 11.6853 2.5 15.0006 2.5C18.316 2.5 21.4956 3.81703 23.8399 6.16135C26.1842 8.50567 27.5012 11.6853 27.5012 15.0006Z" stroke="white" stroke-width="1.7"/>
<path d="M20.0001 15C20.0001 16.6412 19.8701 18.2675 19.6188 19.7837C19.3688 21.3 19.0001 22.6775 18.5351 23.8387C18.0713 25 17.5201 25.92 16.9138 26.5488C16.3063 27.1763 15.6563 27.5 15.0001 27.5C14.3438 27.5 13.6938 27.1763 13.0876 26.5488C12.4801 25.92 11.9288 24.9987 11.4651 23.8387C11.0001 22.6775 10.6313 21.3012 10.3801 19.7837C10.1237 18.2021 9.99661 16.6023 10.0001 15C10.0001 13.3588 10.1288 11.7325 10.3801 10.2163C10.6313 8.7 11.0001 7.3225 11.4651 6.16125C11.9288 5 12.4801 4.08 13.0863 3.45125C13.6938 2.825 14.3438 2.5 15.0001 2.5C15.6563 2.5 16.3063 2.82375 16.9126 3.45125C17.5201 4.08 18.0713 5.00125 18.5351 6.16125C19.0001 7.3225 19.3688 8.69875 19.6188 10.2163C19.8713 11.7325 20.0001 13.3588 20.0001 15Z" stroke="white" stroke-width="1.7"/>
<path d="M2.5 15H27.5" stroke="white" stroke-width="1.7" stroke-linecap="round"/>
</svg>
